<?xml version="1.0" encoding="UTF-8"?>
<svg xmlns="http://www.w3.org/2000/svg" xmlns:xlink="http://www.w3.org/1999/xlink" width="344pt" height="88pt" viewBox="0 0 344 88" version="1.1">
<g id="surface1">
<path style=" stroke:none;fill-rule:nonzero;fill:rgb(100%,81.568627%,0%);fill-opacity:1;" d="M 1.980469 42.421875 L 16.460938 27.960938 L 16.460938 56.878906 Z M 1.980469 42.421875 "/>
<path style=" stroke:none;fill-rule:nonzero;fill:rgb(100%,81.568627%,0%);fill-opacity:1;" d="M 33.078125 59.398438 L 33.078125 73.480469 L 18.28125 58.640625 L 18.28125 44.558594 Z M 33.078125 59.398438 "/>
<path style=" stroke:none;fill-rule:nonzero;fill:rgb(100%,81.568627%,0%);fill-opacity:1;" d="M 19.558594 24.859375 L 33.121094 11.339844 L 33.121094 24.859375 Z M 19.558594 24.859375 "/>
<path style=" stroke:none;fill-rule:nonzero;fill:rgb(100%,81.568627%,0%);fill-opacity:1;" d="M 18.28125 26.660156 L 33.121094 26.660156 L 33.121094 41.460938 L 18.28125 41.460938 Z M 18.28125 26.660156 "/>
<path style=" stroke:none;fill-rule:nonzero;fill:rgb(100%,81.568627%,0%);fill-opacity:1;" d="M 19.558594 43.28125 L 33.121094 43.28125 L 33.121094 56.820312 Z M 19.558594 43.28125 "/>
<path style=" stroke:none;fill-rule:nonzero;fill:rgb(100%,81.568627%,0%);fill-opacity:1;" d="M 65.121094 10.058594 L 34.921875 40.261719 L 34.921875 10.058594 Z M 65.121094 10.058594 "/>
<path style=" stroke:none;fill-rule:nonzero;fill:rgb(100%,81.568627%,0%);fill-opacity:1;" d="M 34.898438 74.738281 L 34.898438 44.558594 L 65.078125 74.738281 Z M 34.898438 74.738281 "/>
<path style=" stroke:none;fill-rule:nonzero;fill:rgb(0%,40.392157%,69.411765%);fill-opacity:1;" d="M 82.320312 66.941406 L 81 68.28125 C 80.398438 67.65625 79.566406 67.304688 78.699219 67.320312 C 77.164062 67.320312 75.921875 68.566406 75.921875 70.101562 C 75.921875 71.636719 77.164062 72.878906 78.699219 72.878906 C 79.554688 72.914062 80.386719 72.597656 81 72 L 82.320312 73.339844 C 81.390625 74.351562 80.074219 74.914062 78.699219 74.878906 C 77.402344 74.917969 76.140625 74.433594 75.199219 73.539062 C 74.292969 72.660156 73.78125 71.453125 73.78125 70.191406 C 73.78125 68.925781 74.292969 67.71875 75.199219 66.839844 C 76.140625 65.941406 77.398438 65.449219 78.699219 65.480469 C 80.058594 65.425781 81.378906 65.957031 82.320312 66.941406 Z M 82.320312 66.941406 "/>
<path style=" stroke:none;fill-rule:nonzero;fill:rgb(0%,40.392157%,69.411765%);fill-opacity:1;" d="M 84.621094 70.121094 C 84.582031 68.859375 85.082031 67.644531 86 66.78125 C 87.980469 64.964844 91.019531 64.964844 93 66.78125 C 93.90625 67.65625 94.417969 68.859375 94.417969 70.121094 C 94.417969 71.378906 93.90625 72.585938 93 73.460938 C 91.019531 75.273438 87.980469 75.273438 86 73.460938 C 85.082031 72.59375 84.582031 71.378906 84.621094 70.121094 Z M 91.539062 72.121094 C 92.078125 71.597656 92.378906 70.871094 92.359375 70.121094 C 92.367188 69.378906 92.070312 68.664062 91.542969 68.140625 C 91.019531 67.617188 90.300781 67.328125 89.558594 67.339844 C 88.8125 67.3125 88.085938 67.59375 87.554688 68.121094 C 87.027344 68.648438 86.738281 69.371094 86.761719 70.121094 C 86.738281 70.863281 87.019531 71.585938 87.539062 72.121094 C 88.066406 72.652344 88.792969 72.941406 89.539062 72.921875 C 90.292969 72.941406 91.019531 72.640625 91.539062 72.101562 Z M 91.539062 72.121094 "/>
<path style=" stroke:none;fill-rule:nonzero;fill:rgb(0%,40.392157%,69.411765%);fill-opacity:1;" d="M 97.519531 74.558594 L 97.519531 65.679688 L 99.660156 65.679688 L 99.660156 66.960938 C 100.199219 65.992188 101.253906 65.421875 102.359375 65.5 C 103.304688 65.441406 104.230469 65.804688 104.882812 66.492188 C 105.535156 67.175781 105.847656 68.117188 105.738281 69.058594 L 105.738281 71.859375 C 105.738281 72.539062 105.859375 72.800781 106.339844 72.800781 L 106.640625 72.800781 L 106.640625 74.578125 C 106.335938 74.617188 106.027344 74.617188 105.71875 74.578125 C 104.300781 74.578125 103.601562 73.800781 103.601562 72.261719 L 103.601562 69.359375 C 103.667969 68.828125 103.492188 68.296875 103.125 67.910156 C 102.757812 67.519531 102.234375 67.320312 101.699219 67.359375 C 100.59375 67.359375 99.699219 68.253906 99.699219 69.359375 L 99.699219 74.480469 Z M 97.519531 74.558594 "/>
<path style=" stroke:none;fill-rule:nonzero;fill:rgb(0%,40.392157%,69.411765%);fill-opacity:1;" d="M 115.300781 67.601562 L 114.160156 67.601562 L 114.160156 65.601562 L 115.300781 65.601562 L 115.300781 62.199219 L 117.441406 62.199219 L 117.441406 65.601562 L 119.441406 65.601562 L 119.441406 67.601562 L 117.441406 67.601562 L 117.441406 71.601562 C 117.441406 72.558594 117.78125 72.921875 118.578125 72.921875 C 118.832031 72.949219 119.085938 72.949219 119.339844 72.921875 L 119.339844 74.921875 C 118.96875 74.953125 118.59375 74.953125 118.21875 74.921875 C 116.21875 74.921875 115.300781 73.921875 115.300781 71.898438 Z M 115.300781 67.601562 "/>
<path style=" stroke:none;fill-rule:nonzero;fill:rgb(0%,40.392157%,69.411765%);fill-opacity:1;" d="M 121.800781 70.121094 C 121.785156 68.851562 122.308594 67.640625 123.238281 66.78125 C 125.21875 64.964844 128.257812 64.964844 130.238281 66.78125 C 131.15625 67.648438 131.675781 68.855469 131.675781 70.121094 C 131.675781 71.382812 131.15625 72.589844 130.238281 73.460938 C 128.257812 75.273438 125.21875 75.273438 123.238281 73.460938 C 122.308594 72.601562 121.785156 71.386719 121.800781 70.121094 Z M 128.738281 72.121094 C 129.273438 71.59375 129.566406 70.871094 129.539062 70.121094 C 129.566406 69.371094 129.277344 68.644531 128.738281 68.121094 C 128.210938 67.589844 127.488281 67.300781 126.738281 67.320312 C 125.992188 67.292969 125.265625 67.582031 124.738281 68.121094 C 124.210938 68.648438 123.921875 69.371094 123.941406 70.121094 C 123.925781 70.867188 124.214844 71.589844 124.738281 72.121094 C 125.265625 72.65625 125.992188 72.949219 126.738281 72.921875 C 127.492188 72.933594 128.214844 72.636719 128.738281 72.101562 Z M 128.738281 72.121094 "/>
<path style=" stroke:none;fill-rule:nonzero;fill:rgb(0%,40.392157%,69.411765%);fill-opacity:1;" d="M 141.71875 66.960938 L 141.71875 62.28125 L 143.878906 62.28125 L 143.878906 71.878906 C 143.878906 72.640625 144.058594 72.921875 144.539062 72.921875 L 144.980469 72.921875 L 144.980469 74.621094 C 144.640625 74.734375 144.277344 74.78125 143.921875 74.761719 C 143.488281 74.785156 143.058594 74.6875 142.679688 74.480469 C 142.296875 74.246094 142.027344 73.863281 141.941406 73.421875 C 141.210938 74.378906 140.042969 74.902344 138.839844 74.800781 C 137.621094 74.828125 136.445312 74.34375 135.601562 73.460938 C 133.894531 71.589844 133.894531 68.730469 135.601562 66.859375 C 136.449219 65.992188 137.625 65.511719 138.839844 65.539062 C 139.996094 65.410156 141.117188 65.964844 141.71875 66.960938 Z M 141.078125 72 C 142.140625 70.925781 142.140625 69.195312 141.078125 68.121094 C 140.546875 67.597656 139.824219 67.316406 139.078125 67.339844 C 138.332031 67.308594 137.609375 67.589844 137.078125 68.121094 C 136.070312 69.214844 136.070312 70.90625 137.078125 72 C 137.609375 72.523438 138.335938 72.800781 139.078125 72.761719 C 139.820312 72.789062 140.542969 72.515625 141.078125 72 Z M 141.078125 72 "/>
<path style=" stroke:none;fill-rule:nonzero;fill:rgb(0%,40.392157%,69.411765%);fill-opacity:1;" d="M 147.121094 70.121094 C 147.097656 68.851562 147.621094 67.632812 148.558594 66.78125 C 150.539062 64.964844 153.578125 64.964844 155.558594 66.78125 C 156.46875 67.65625 156.980469 68.859375 156.980469 70.121094 C 156.980469 71.378906 156.46875 72.585938 155.558594 73.460938 C 153.578125 75.273438 150.539062 75.273438 148.558594 73.460938 C 147.621094 72.605469 147.097656 71.390625 147.121094 70.121094 Z M 154.039062 72.121094 C 154.578125 71.597656 154.878906 70.871094 154.859375 70.121094 C 154.867188 69.367188 154.5625 68.644531 154.023438 68.117188 C 153.484375 67.59375 152.753906 67.3125 152 67.339844 C 151.253906 67.3125 150.527344 67.59375 149.996094 68.121094 C 149.464844 68.648438 149.175781 69.371094 149.199219 70.121094 C 149.175781 70.863281 149.457031 71.585938 149.980469 72.121094 C 150.507812 72.652344 151.230469 72.941406 151.980469 72.921875 C 152.738281 72.945312 153.472656 72.648438 154 72.101562 Z M 154.039062 72.121094 "/>
<path style=" stroke:none;fill-rule:nonzero;fill:rgb(0%,40.392157%,69.411765%);fill-opacity:1;" d="M 165.398438 62.28125 L 167.558594 62.28125 L 167.558594 71.640625 C 167.558594 72.5 167.839844 72.878906 168.621094 72.878906 C 168.839844 72.914062 169.0625 72.914062 169.28125 72.878906 L 169.28125 74.878906 C 168.941406 74.917969 168.597656 74.917969 168.261719 74.878906 C 167.46875 74.988281 166.671875 74.71875 166.113281 74.152344 C 165.550781 73.585938 165.285156 72.789062 165.398438 72 Z M 165.398438 62.28125 "/>
<path style=" stroke:none;fill-rule:nonzero;fill:rgb(0%,40.392157%,69.411765%);fill-opacity:1;" d="M 171.460938 70.121094 C 171.4375 68.851562 171.960938 67.632812 172.898438 66.78125 C 174.878906 64.964844 177.917969 64.964844 179.898438 66.78125 C 180.816406 67.648438 181.335938 68.855469 181.335938 70.121094 C 181.335938 71.382812 180.816406 72.589844 179.898438 73.460938 C 177.917969 75.273438 174.878906 75.273438 172.898438 73.460938 C 171.960938 72.605469 171.4375 71.390625 171.460938 70.121094 Z M 178.378906 72.121094 C 178.917969 71.597656 179.21875 70.871094 179.199219 70.121094 C 179.207031 69.378906 178.910156 68.664062 178.382812 68.140625 C 177.859375 67.617188 177.140625 67.328125 176.398438 67.339844 C 175.652344 67.324219 174.929688 67.613281 174.398438 68.140625 C 173.875 68.671875 173.59375 69.394531 173.621094 70.140625 C 173.597656 70.886719 173.886719 71.609375 174.417969 72.136719 C 174.945312 72.664062 175.671875 72.949219 176.421875 72.921875 C 177.160156 72.929688 177.867188 72.632812 178.378906 72.101562 Z M 178.378906 72.121094 "/>
<path style=" stroke:none;fill-rule:nonzero;fill:rgb(0%,40.392157%,69.411765%);fill-opacity:1;" d="M 198.761719 78 L 196.621094 78 L 196.621094 73.261719 C 196.050781 74.304688 194.898438 74.894531 193.71875 74.738281 C 192.511719 74.761719 191.347656 74.285156 190.5 73.421875 C 188.765625 71.5625 188.765625 68.679688 190.5 66.820312 C 191.347656 65.957031 192.511719 65.480469 193.71875 65.5 C 194.894531 65.34375 196.046875 65.921875 196.621094 66.960938 L 196.621094 65.679688 L 198.761719 65.679688 Z M 192.101562 68.238281 C 191.089844 69.335938 191.089844 71.023438 192.101562 72.121094 C 192.628906 72.644531 193.355469 72.921875 194.101562 72.878906 C 194.824219 72.84375 195.503906 72.527344 196 72 C 197.0625 70.925781 197.0625 69.195312 196 68.121094 C 195.460938 67.605469 194.742188 67.324219 194 67.339844 C 193.277344 67.351562 192.59375 67.652344 192.101562 68.179688 Z M 192.101562 68.238281 "/>
<path style=" stroke:none;fill-rule:nonzero;fill:rgb(0%,40.392157%,69.411765%);fill-opacity:1;" d="M 202 65.679688 L 204.140625 65.679688 L 204.140625 70.878906 C 204.066406 71.402344 204.230469 71.925781 204.589844 72.3125 C 204.945312 72.703125 205.453125 72.910156 205.980469 72.878906 C 207.085938 72.878906 207.980469 71.984375 207.980469 70.878906 L 207.980469 65.679688 L 210.121094 65.679688 L 210.121094 71.859375 C 210.121094 72.621094 210.300781 72.878906 210.78125 72.878906 L 211.238281 72.878906 L 211.238281 74.601562 C 210.898438 74.710938 210.539062 74.757812 210.179688 74.738281 C 209.714844 74.761719 209.257812 74.640625 208.859375 74.398438 C 208.53125 74.179688 208.296875 73.84375 208.199219 73.460938 C 207.59375 74.363281 206.542969 74.863281 205.460938 74.761719 C 204.5 74.839844 203.554688 74.480469 202.882812 73.789062 C 202.214844 73.09375 201.890625 72.136719 202 71.179688 Z M 202 65.679688 "/>
<path style=" stroke:none;fill-rule:nonzero;fill:rgb(0%,40.392157%,69.411765%);fill-opacity:1;" d="M 213.539062 70.121094 C 213.484375 68.851562 213.964844 67.617188 214.859375 66.71875 C 215.777344 65.855469 217 65.394531 218.261719 65.441406 C 219.464844 65.386719 220.636719 65.855469 221.480469 66.71875 C 222.3125 67.566406 222.769531 68.714844 222.738281 69.898438 C 222.738281 70.160156 222.738281 70.421875 222.738281 70.640625 L 215.699219 70.640625 C 215.734375 71.320312 216.046875 71.953125 216.566406 72.394531 C 217.085938 72.832031 217.765625 73.039062 218.441406 72.960938 C 219.359375 72.972656 220.242188 72.601562 220.878906 71.941406 L 222.160156 73.179688 C 221.175781 74.222656 219.792969 74.796875 218.359375 74.761719 C 217.089844 74.8125 215.847656 74.367188 214.898438 73.519531 C 214.003906 72.648438 213.523438 71.429688 213.578125 70.179688 Z M 220.539062 69.160156 C 220.542969 68.628906 220.289062 68.128906 219.859375 67.820312 C 219.421875 67.425781 218.847656 67.21875 218.261719 67.238281 C 217.632812 67.226562 217.019531 67.421875 216.519531 67.800781 C 216.078125 68.125 215.789062 68.617188 215.71875 69.160156 Z M 220.539062 69.160156 "/>
<path style=" stroke:none;fill-rule:nonzero;fill:rgb(0%,40.392157%,69.411765%);fill-opacity:1;" d="M 231.539062 67.601562 L 230.421875 67.601562 L 230.421875 65.601562 L 231.539062 65.601562 L 231.539062 62.199219 L 233.699219 62.199219 L 233.699219 65.601562 L 235.699219 65.601562 L 235.699219 67.601562 L 233.699219 67.601562 L 233.699219 71.601562 C 233.699219 72.558594 234.039062 72.921875 234.820312 72.921875 C 235.074219 72.953125 235.328125 72.953125 235.578125 72.921875 L 235.578125 74.921875 C 235.207031 74.957031 234.832031 74.957031 234.460938 74.921875 C 233.640625 75.027344 232.816406 74.738281 232.242188 74.140625 C 231.667969 73.546875 231.40625 72.714844 231.539062 71.898438 Z M 231.539062 67.601562 "/>
<path style=" stroke:none;fill-rule:nonzero;fill:rgb(0%,40.392157%,69.411765%);fill-opacity:1;" d="M 238 70.121094 C 237.945312 68.851562 238.425781 67.617188 239.320312 66.71875 C 240.242188 65.855469 241.476562 65.394531 242.738281 65.441406 C 243.941406 65.394531 245.101562 65.859375 245.941406 66.71875 C 246.773438 67.566406 247.226562 68.714844 247.199219 69.898438 C 247.199219 70.160156 247.199219 70.421875 247.199219 70.640625 L 240.199219 70.640625 C 240.230469 71.316406 240.539062 71.953125 241.054688 72.394531 C 241.570312 72.832031 242.246094 73.039062 242.921875 72.960938 C 243.839844 72.976562 244.722656 72.605469 245.359375 71.941406 L 246.640625 73.179688 C 245.65625 74.226562 244.273438 74.800781 242.839844 74.761719 C 241.570312 74.8125 240.328125 74.367188 239.378906 73.519531 C 238.484375 72.648438 238.003906 71.429688 238.058594 70.179688 Z M 245.019531 69.160156 C 245.015625 68.625 244.753906 68.128906 244.320312 67.820312 C 243.890625 67.429688 243.320312 67.21875 242.738281 67.238281 C 242.113281 67.21875 241.496094 67.417969 241 67.800781 C 240.539062 68.109375 240.238281 68.609375 240.179688 69.160156 Z M 245.019531 69.160156 "/>
<path style=" stroke:none;fill-rule:nonzero;fill:rgb(0%,40.392157%,69.411765%);fill-opacity:1;" d="M 255.820312 74.558594 L 255.820312 65.679688 L 258 65.679688 L 258 66.960938 C 258.5 66.046875 259.46875 65.488281 260.511719 65.507812 C 261.550781 65.53125 262.496094 66.128906 262.960938 67.058594 C 263.523438 66 264.667969 65.382812 265.859375 65.5 C 267.859375 65.5 268.960938 66.859375 268.960938 69.058594 L 268.960938 71.859375 C 268.960938 72.539062 269.078125 72.800781 269.558594 72.800781 L 269.859375 72.800781 L 269.859375 74.578125 C 269.554688 74.621094 269.246094 74.621094 268.941406 74.578125 C 267.519531 74.578125 266.820312 73.800781 266.820312 72.261719 L 266.820312 69.359375 C 266.820312 68.140625 266.238281 67.359375 265.238281 67.359375 C 264.742188 67.390625 264.277344 67.621094 263.953125 67.996094 C 263.625 68.371094 263.460938 68.863281 263.5 69.359375 L 263.5 74.480469 L 261.359375 74.480469 L 261.359375 69.28125 C 261.359375 68.058594 260.78125 67.28125 259.738281 67.28125 C 259.242188 67.3125 258.777344 67.539062 258.453125 67.914062 C 258.125 68.292969 257.960938 68.78125 258 69.28125 L 258 74.398438 Z M 255.820312 74.558594 "/>
<path style=" stroke:none;fill-rule:nonzero;fill:rgb(0%,40.392157%,69.411765%);fill-opacity:1;" d="M 272.179688 70.121094 C 272.125 68.851562 272.605469 67.617188 273.5 66.71875 C 274.421875 65.855469 275.65625 65.394531 276.921875 65.441406 C 278.121094 65.394531 279.28125 65.859375 280.121094 66.71875 C 280.953125 67.566406 281.410156 68.714844 281.378906 69.898438 C 281.378906 70.160156 281.378906 70.421875 281.378906 70.640625 L 274.359375 70.640625 C 274.390625 71.316406 274.699219 71.953125 275.214844 72.394531 C 275.730469 72.832031 276.40625 73.039062 277.078125 72.960938 C 278 72.976562 278.882812 72.605469 279.519531 71.941406 L 280.820312 73.179688 C 279.828125 74.222656 278.441406 74.796875 277 74.761719 C 275.730469 74.808594 274.488281 74.363281 273.539062 73.519531 C 272.644531 72.648438 272.164062 71.429688 272.21875 70.179688 Z M 279.199219 69.160156 C 279.195312 68.632812 278.941406 68.136719 278.519531 67.820312 C 278.078125 67.429688 277.507812 67.222656 276.921875 67.238281 C 276.292969 67.21875 275.675781 67.417969 275.179688 67.800781 C 274.71875 68.109375 274.417969 68.609375 274.359375 69.160156 Z M 279.199219 69.160156 "/>
<path style=" stroke:none;fill-rule:nonzero;fill:rgb(0%,40.392157%,69.411765%);fill-opacity:1;" d="M 284.339844 74.558594 L 284.339844 65.679688 L 286.480469 65.679688 L 286.480469 67 C 286.996094 66.011719 288.046875 65.421875 289.160156 65.5 C 289.378906 65.476562 289.601562 65.476562 289.820312 65.5 L 289.820312 67.5 C 289.519531 67.46875 289.21875 67.46875 288.921875 67.5 C 288.269531 67.433594 287.621094 67.65625 287.152344 68.113281 C 286.679688 68.566406 286.433594 69.207031 286.480469 69.859375 L 286.480469 74.539062 Z M 284.339844 74.558594 "/>
<path style=" stroke:none;fill-rule:nonzero;fill:rgb(0%,40.392157%,69.411765%);fill-opacity:1;" d="M 291.878906 70.121094 C 291.824219 68.851562 292.304688 67.617188 293.199219 66.71875 C 294.125 65.855469 295.355469 65.394531 296.621094 65.441406 C 297.820312 65.394531 298.984375 65.859375 299.820312 66.71875 C 300.652344 67.566406 301.109375 68.714844 301.078125 69.898438 C 301.078125 70.160156 301.078125 70.421875 301.078125 70.640625 L 294 70.640625 C 294.027344 71.316406 294.339844 71.953125 294.855469 72.394531 C 295.371094 72.832031 296.046875 73.039062 296.71875 72.960938 C 297.640625 72.976562 298.523438 72.605469 299.160156 71.941406 L 300.441406 73.179688 C 299.457031 74.226562 298.074219 74.800781 296.640625 74.761719 C 295.367188 74.8125 294.128906 74.367188 293.179688 73.519531 C 292.28125 72.648438 291.800781 71.429688 291.859375 70.179688 Z M 298.898438 69.160156 C 298.894531 68.625 298.636719 68.128906 298.199219 67.820312 C 297.769531 67.429688 297.203125 67.21875 296.621094 67.238281 C 295.992188 67.21875 295.378906 67.417969 294.878906 67.800781 C 294.417969 68.109375 294.117188 68.609375 294.058594 69.160156 Z M 298.898438 69.160156 "/>
<path style=" stroke:none;fill-rule:nonzero;fill:rgb(0%,40.392157%,69.411765%);fill-opacity:1;" d="M 312.179688 66.941406 L 310.859375 68.28125 C 310.261719 67.65625 309.425781 67.304688 308.558594 67.320312 C 307.8125 67.300781 307.089844 67.589844 306.558594 68.121094 C 305.492188 69.238281 305.492188 71 306.558594 72.121094 C 307.089844 72.652344 307.8125 72.941406 308.558594 72.921875 C 309.425781 72.933594 310.261719 72.585938 310.859375 71.960938 L 312.179688 73.300781 C 311.25 74.3125 309.933594 74.871094 308.558594 74.839844 C 307.261719 74.871094 306.003906 74.390625 305.058594 73.5 C 304.152344 72.621094 303.640625 71.414062 303.640625 70.148438 C 303.640625 68.886719 304.152344 67.679688 305.058594 66.800781 C 306 65.902344 307.257812 65.414062 308.558594 65.441406 C 309.925781 65.398438 311.246094 65.945312 312.179688 66.941406 Z M 312.179688 66.941406 "/>
<path style=" stroke:none;fill-rule:nonzero;fill:rgb(0%,40.392157%,69.411765%);fill-opacity:1;" d="M 314.480469 70.121094 C 314.425781 68.851562 314.902344 67.617188 315.800781 66.71875 C 316.722656 65.855469 317.953125 65.394531 319.21875 65.441406 C 320.417969 65.394531 321.582031 65.859375 322.421875 66.71875 C 323.261719 67.558594 323.71875 68.710938 323.679688 69.898438 C 323.679688 70.160156 323.679688 70.421875 323.679688 70.640625 L 316.660156 70.640625 C 316.6875 71.316406 317 71.953125 317.515625 72.394531 C 318.03125 72.832031 318.707031 73.039062 319.378906 72.960938 C 320.300781 72.976562 321.183594 72.605469 321.820312 71.941406 L 323.121094 73.179688 C 322.128906 74.226562 320.738281 74.800781 319.300781 74.761719 C 318.03125 74.808594 316.789062 74.363281 315.839844 73.519531 C 314.941406 72.648438 314.460938 71.429688 314.519531 70.179688 Z M 321.5 69.160156 C 321.492188 68.632812 321.242188 68.136719 320.820312 67.820312 C 320.378906 67.429688 319.808594 67.222656 319.21875 67.238281 C 318.59375 67.222656 317.980469 67.417969 317.480469 67.800781 C 317.03125 68.121094 316.734375 68.613281 316.660156 69.160156 Z M 321.5 69.160156 "/>
<path style=" stroke:none;fill-rule:nonzero;fill:rgb(0%,40.392157%,69.411765%);fill-opacity:1;" d="M 327.28125 71.839844 C 327.847656 72.582031 328.746094 72.992188 329.679688 72.941406 C 330.800781 72.941406 331.28125 72.519531 331.28125 71.980469 C 331.261719 71.664062 331.054688 71.390625 330.761719 71.28125 C 330.492188 71.140625 330.210938 71.027344 329.921875 70.941406 C 329.660156 70.941406 329.121094 70.699219 328.820312 70.578125 C 327.359375 70.058594 326.578125 69.339844 326.578125 68.078125 C 326.539062 67.300781 326.882812 66.554688 327.5 66.078125 C 328.15625 65.589844 328.960938 65.339844 329.78125 65.359375 C 330.90625 65.296875 331.992188 65.78125 332.699219 66.660156 L 331.5 67.921875 C 331.066406 67.40625 330.410156 67.128906 329.738281 67.179688 C 329.078125 67.179688 328.660156 67.480469 328.660156 67.960938 C 328.664062 68.226562 328.820312 68.464844 329.058594 68.578125 L 329.800781 68.898438 C 330.058594 68.898438 330.578125 69.140625 330.941406 69.261719 C 332.601562 69.839844 333.359375 70.640625 333.359375 71.898438 C 333.359375 73.539062 332.101562 74.71875 329.640625 74.71875 C 328.15625 74.863281 326.714844 74.171875 325.898438 72.921875 Z M 327.28125 71.839844 "/>
<path style=" stroke:none;fill-rule:nonzero;fill:rgb(0%,40.392157%,69.411765%);fill-opacity:1;" d="M 84.738281 49.519531 C 81.660156 49.585938 78.675781 48.421875 76.460938 46.28125 C 74.265625 44.09375 73.078125 41.09375 73.179688 38 C 73.089844 34.914062 74.300781 31.929688 76.519531 29.78125 C 78.695312 27.601562 81.664062 26.410156 84.738281 26.480469 C 88.308594 26.410156 91.714844 27.960938 94 30.699219 L 99.480469 26 C 95.910156 21.941406 90.847656 19.5 85.449219 19.230469 C 80.050781 18.964844 74.773438 20.894531 70.820312 24.578125 C 67.082031 28.027344 65.003906 32.914062 65.121094 38 C 64.996094 43.09375 67.074219 47.988281 70.820312 51.441406 C 74.597656 54.996094 79.632812 56.910156 84.820312 56.761719 C 90.480469 56.773438 95.859375 54.300781 99.539062 50 L 94 45.339844 C 91.695312 48.050781 88.296875 49.585938 84.738281 49.519531 Z M 114.179688 29.121094 C 110.3125 29.019531 106.566406 30.460938 103.761719 33.121094 C 101.003906 35.664062 99.464844 39.269531 99.539062 43.019531 C 99.457031 46.804688 100.992188 50.441406 103.761719 53.019531 C 109.648438 58.378906 118.648438 58.378906 124.539062 53.019531 C 127.347656 50.464844 128.910156 46.816406 128.820312 43.019531 C 128.898438 39.253906 127.335938 35.640625 124.539062 33.121094 C 121.75 30.46875 118.027344 29.03125 114.179688 29.121094 Z M 119.039062 48 C 116.335938 50.636719 112.023438 50.636719 109.320312 48 C 108.011719 46.703125 107.289062 44.925781 107.320312 43.078125 C 107.285156 41.246094 108.007812 39.480469 109.320312 38.199219 C 110.597656 36.894531 112.351562 36.15625 114.179688 36.15625 C 116.007812 36.15625 117.761719 36.894531 119.039062 38.199219 C 120.351562 39.480469 121.074219 41.246094 121.039062 43.078125 C 121.066406 44.921875 120.34375 46.699219 119.039062 48 Z M 138.558594 46.480469 L 138.558594 19.820312 L 130.761719 19.820312 L 130.761719 47.699219 C 130.761719 53.859375 133.738281 56.960938 139.761719 56.960938 L 143.480469 56.960938 L 143.480469 50 C 139.398438 50 138.558594 48.839844 138.558594 46.5 Z M 195.359375 47 L 195.359375 30 L 187.558594 30 L 187.558594 44.800781 C 187.667969 46.148438 187.199219 47.480469 186.277344 48.472656 C 185.351562 49.460938 184.054688 50.015625 182.699219 50 C 181.398438 50.074219 180.128906 49.558594 179.246094 48.597656 C 178.363281 47.636719 177.957031 46.332031 178.140625 45.039062 L 178.140625 30 L 170.359375 30 L 170.359375 46 C 170.359375 52.859375 174.058594 56.921875 180.699219 56.921875 C 184.519531 56.921875 187.140625 55.621094 188.460938 53.058594 C 188.902344 54.214844 189.730469 55.179688 190.800781 55.800781 C 192.125 56.484375 193.609375 56.808594 195.101562 56.738281 C 196.28125 56.773438 197.460938 56.632812 198.601562 56.320312 L 198.601562 49.839844 L 197.300781 49.839844 C 195.878906 49.839844 195.359375 49.101562 195.359375 47.019531 Z M 216.640625 29.421875 C 212.640625 29.421875 209.578125 31.039062 208.800781 33.421875 L 208.800781 19.820312 L 201 19.820312 L 201 56.28125 L 208.800781 56.28125 L 208.800781 52.820312 C 209.578125 55.121094 212.660156 56.820312 216.640625 56.820312 C 220.179688 56.890625 223.574219 55.433594 225.960938 52.820312 C 228.445312 50.203125 229.796875 46.710938 229.71875 43.101562 C 229.816406 39.507812 228.476562 36.023438 226 33.421875 C 223.613281 30.785156 220.191406 29.328125 216.640625 29.441406 Z M 220 47.800781 C 218.734375 49.046875 217.015625 49.726562 215.238281 49.679688 C 213.421875 49.722656 211.664062 49.046875 210.339844 47.800781 C 209.050781 46.578125 208.324219 44.875 208.339844 43.101562 C 208.3125 41.332031 209.042969 39.640625 210.339844 38.441406 C 211.636719 37.140625 213.402344 36.417969 215.238281 36.441406 C 217.035156 36.410156 218.761719 37.136719 220 38.441406 C 221.304688 39.632812 222.035156 41.332031 222 43.101562 C 222.023438 44.878906 221.296875 46.582031 220 47.800781 Z M 246.578125 40.640625 C 243.660156 39.578125 241.460938 39.21875 240.460938 38.800781 C 239.460938 38.378906 239.359375 38.078125 239.359375 37.398438 C 239.359375 36.398438 240.300781 35.71875 241.980469 35.71875 C 244.015625 35.640625 246.003906 36.359375 247.519531 37.71875 L 251.238281 32.578125 C 248.792969 30.285156 245.53125 29.058594 242.179688 29.179688 C 239.574219 29.089844 237.015625 29.886719 234.921875 31.441406 C 232.984375 32.878906 231.890625 35.1875 232 37.601562 C 232 41.101562 234 43.601562 238 44.921875 C 238.78125 45.179688 240 45.558594 241.558594 45.921875 C 242.65625 46.136719 243.726562 46.488281 244.738281 46.960938 C 245.257812 47.171875 245.605469 47.664062 245.640625 48.21875 C 245.640625 49.640625 244.339844 50.359375 241.640625 50.359375 C 238.9375 50.457031 236.316406 49.410156 234.421875 47.480469 L 230 52.300781 C 232.894531 55.582031 237.15625 57.320312 241.519531 57 C 249.261719 57 253.121094 53.5 253.121094 48.121094 C 253.039062 44.621094 250.898438 42.101562 246.558594 40.640625 Z M 162 40.640625 C 159.078125 39.578125 156.878906 39.21875 155.878906 38.800781 C 154.878906 38.378906 154.78125 38.078125 154.78125 37.398438 C 154.78125 36.398438 155.71875 35.71875 157.398438 35.71875 C 159.4375 35.636719 161.425781 36.351562 162.941406 37.71875 L 166.660156 32.578125 C 164.21875 30.289062 160.964844 29.066406 157.621094 29.179688 C 155.007812 29.09375 152.445312 29.890625 150.339844 31.441406 C 148.371094 32.886719 147.253906 35.21875 147.359375 37.660156 C 147.359375 41.160156 149.359375 43.660156 153.359375 44.980469 C 154.160156 45.238281 155.359375 45.621094 156.921875 45.980469 C 158.023438 46.199219 159.097656 46.546875 160.121094 47.019531 C 160.632812 47.234375 160.972656 47.726562 161 48.28125 C 161 49.699219 159.699219 50.421875 157 50.421875 C 154.300781 50.519531 151.683594 49.472656 149.800781 47.539062 L 145.300781 52.359375 C 148.191406 55.636719 152.445312 57.375 156.800781 57.058594 C 164.539062 57.058594 168.421875 53.558594 168.421875 48.179688 C 168.480469 44.621094 166.320312 42.101562 162 40.640625 Z M 259.601562 27.660156 C 262.042969 27.648438 264.011719 25.660156 264 23.21875 C 263.988281 20.777344 262 18.808594 259.558594 18.820312 C 257.117188 18.832031 255.148438 20.820312 255.160156 23.261719 C 255.171875 25.691406 257.148438 27.660156 259.578125 27.660156 Z M 264.300781 49.519531 C 264 49.296875 263.789062 48.980469 263.699219 48.621094 C 263.570312 48.097656 263.511719 47.558594 263.519531 47.019531 L 263.519531 30 L 255.738281 30 L 255.738281 49.398438 C 255.738281 54.359375 258.039062 56.820312 262.640625 56.820312 L 266.238281 56.820312 L 266.238281 49.839844 L 265.800781 49.839844 C 265.273438 49.882812 264.746094 49.773438 264.28125 49.519531 Z M 296 47.019531 L 296 19.820312 L 288.199219 19.820312 L 288.199219 33.359375 C 287.421875 31.058594 284.339844 29.359375 280.359375 29.359375 C 276.808594 29.273438 273.394531 30.734375 271 33.359375 C 268.535156 35.972656 267.199219 39.449219 267.28125 43.039062 C 267.210938 46.660156 268.542969 50.164062 271 52.820312 C 273.40625 55.429688 276.8125 56.886719 280.359375 56.820312 C 284.480469 56.820312 287.359375 55.558594 289.101562 53 C 289.527344 54.183594 290.355469 55.179688 291.441406 55.820312 C 292.765625 56.503906 294.25 56.828125 295.738281 56.761719 L 299.238281 56.761719 L 299.238281 49.839844 L 297.941406 49.839844 C 296.460938 49.839844 296 49.101562 296 47.019531 Z M 286.640625 47.800781 C 285.332031 49.054688 283.574219 49.730469 281.761719 49.679688 C 279.984375 49.71875 278.269531 49.042969 277 47.800781 C 275.710938 46.578125 274.984375 44.875 275 43.101562 C 274.972656 41.332031 275.703125 39.640625 277 38.441406 C 278.242188 37.144531 279.964844 36.417969 281.761719 36.441406 C 283.59375 36.40625 285.359375 37.128906 286.640625 38.441406 C 287.949219 39.632812 288.679688 41.332031 288.640625 43.101562 C 288.652344 44.886719 287.90625 46.597656 286.578125 47.800781 Z M 337.78125 33.199219 C 331.929688 27.757812 322.871094 27.757812 317.019531 33.199219 C 314.253906 35.742188 312.710938 39.34375 312.78125 43.101562 C 312.703125 46.886719 314.246094 50.523438 317.019531 53.101562 C 322.902344 58.457031 331.894531 58.457031 337.78125 53.101562 C 340.59375 50.546875 342.164062 46.898438 342.078125 43.101562 C 342.136719 39.324219 340.542969 35.707031 337.71875 33.199219 Z M 332.238281 48 C 329.53125 50.640625 325.210938 50.640625 322.5 48 C 321.195312 46.699219 320.472656 44.921875 320.5 43.078125 C 320.472656 41.25 321.195312 39.484375 322.5 38.199219 C 323.785156 36.898438 325.539062 36.164062 327.371094 36.164062 C 329.199219 36.164062 330.953125 36.898438 332.238281 38.199219 C 333.546875 39.484375 334.269531 41.25 334.238281 43.078125 C 334.257812 44.921875 333.535156 46.691406 332.238281 48 Z M 304.660156 27.660156 C 307.101562 27.648438 309.070312 25.660156 309.058594 23.21875 C 309.050781 20.777344 307.0625 18.808594 304.621094 18.820312 C 302.179688 18.832031 300.207031 20.820312 300.21875 23.261719 C 300.21875 24.433594 300.6875 25.558594 301.523438 26.386719 C 302.355469 27.210938 303.484375 27.671875 304.660156 27.660156 Z M 309.359375 49.519531 C 309.0625 49.296875 308.847656 48.980469 308.761719 48.621094 C 308.621094 48.097656 308.5625 47.558594 308.578125 47.019531 L 308.578125 30 L 300.800781 30 L 300.800781 49.398438 C 300.800781 54.359375 303.101562 56.820312 307.699219 56.820312 L 311.300781 56.820312 L 311.300781 49.839844 L 310.859375 49.839844 C 310.339844 49.878906 309.820312 49.769531 309.359375 49.519531 Z M 309.359375 49.519531 "/>
</g>
</svg>
