<?xml version="1.0" encoding="UTF-8"?>
<svg width="856px" height="167px" viewBox="0 0 856 167" version="1.1" xmlns="http://www.w3.org/2000/svg" xmlns:xlink="http://www.w3.org/1999/xlink">
    <title>logo_web_Azul_vf</title>
    <g id="Page-1" stroke="none" stroke-width="1" fill="none" fill-rule="evenodd">
        <g id="logo_web_Azul_vf" transform="translate(0.000000, 0.000000)" fill="#418FDE" fill-rule="nonzero">
            <path d="M658.585,82.263113 C681.233333,82.263113 699.601667,100.959316 699.601667,124.285054 C699.601667,147.432733 681.233333,166.306995 658.585,166.306995 C635.936667,166.306995 617.568333,147.432733 617.568333,124.285054 C617.568333,101.137375 635.936667,82.263113 658.585,82.263113 Z M814.983333,82.263113 C837.631667,82.263113 856,100.959316 856,124.285054 C856,147.432733 837.631667,166.306995 814.983333,166.306995 C792.335,166.306995 773.966667,147.432733 773.966667,124.285054 C773.966667,101.137375 792.335,82.263113 814.983333,82.263113 Z M403.746667,82.263113 C418.145026,82.4384327 426.319403,83.1316199 429.972086,94.8806126 L430.14,95.4394844 L430.318333,95.7956026 C433.885,83.3314676 441.018333,82.263113 455.641667,82.263113 L474.723333,82.263113 L474.723333,163.45805 L455.641667,163.45805 L455.641667,101.315434 C449.134977,99.9107455 440.027076,102.142151 439.775335,116.717519 L439.77,117.34075 L439.77,163.636108 L419.618333,163.636108 L419.618333,117.34075 C419.618333,102.415938 410.600804,99.9577333 404.023113,101.258269 L403.746667,101.315434 L403.746667,163.45805 L384.665,163.45805 L384.665,82.263113 L403.746667,82.263113 Z M621.491667,82.263113 L621.491667,99.5348431 L598.665,99.5348431 L598.665,163.45805 L579.583333,163.45805 L579.583333,99.5348431 L554.438333,99.5348431 L554.438333,82.263113 L621.491667,82.263113 Z M725.816667,82.263113 L725.816667,82.4411721 C726.886667,82.263113 727.956667,82.263113 729.205,82.263113 C751.318333,82.263113 769.33,100.425138 769.151667,122.860581 C769.151667,145.296025 751.14,163.45805 729.026667,163.45805 C728.224167,163.45805 727.321355,163.357891 726.468698,163.307813 L725.638333,163.279991 L706.556667,163.45805 L706.556667,82.263113 L725.816667,82.263113 Z M549.088333,82.263113 L549.088333,163.45805 L530.006667,163.45805 L530.006667,141.912901 L508.25,141.912901 L508.25,163.45805 L488.633333,163.45805 L488.633333,123.928936 C488.633333,103.304354 503.315232,82.6797712 527.487927,82.2693421 L528.223333,82.263113 L549.088333,82.263113 Z M301.205,82.263113 L301.205,163.45805 L282.123333,163.45805 L282.123333,141.912901 L260.366667,141.912901 L260.366667,163.45805 L240.75,163.45805 L240.75,123.928936 C240.75,103.304354 255.431899,82.6797712 279.604595,82.2693421 L280.34,82.263113 L301.205,82.263113 Z M238.253333,82.085054 L238.253333,101.315434 L198.128333,101.315434 L198.128333,115.025982 L229.336667,115.025982 L229.336667,133.722185 L198.128333,133.722185 L198.128333,163.45805 L178.155,163.45805 L178.155,82.085054 L238.253333,82.085054 Z M314.58,82.263113 L335.248726,82.263113 C344.371316,82.2749714 349.682904,82.446916 357.023333,85.1120582 C368.08,89.2074169 375.035,97.9323113 375.035,110.040328 C375.035,124.463113 370.398333,129.982944 367.01,133.900244 C371.198936,137.037114 374.021269,140.51511 374.139472,150.844646 L374.143333,151.528093 L374.143333,163.45805 L355.953333,163.45805 L355.953333,154.555097 C355.953333,148.452864 352.19177,142.009196 345.003477,141.743358 L344.54,141.734843 L333.305,141.734843 L333.305,163.45805 L314.58,163.45805 L314.58,82.263113 Z M158.003333,1.42108547e-14 L158.003333,163.458228 L0,163.458228 L0,1.42108547e-14 L158.003333,1.42108547e-14 Z M27.82,53.5957806 C20.2408333,53.5957806 12.8207356,54.5487263 5.86017041,56.6046186 L4.63666672,56.978903 L4.63666672,159.006751 L107,159.006751 C109.14,151.706328 110.211282,143.871729 110.211282,135.859072 C110.388333,90.4540085 73.4733333,53.5957806 27.82,53.5957806 Z M90.3950802,91.1650578 L90.415,91.1660667 C91.1283333,90.9880077 88.6316667,130.695181 80.9633333,139.776193 C73.83,148.144969 60.455,150.10362 52.0733333,142.981257 C43.6916667,135.858894 42.6216667,123.394759 49.755,115.025982 C53.1433333,111.054491 60.6085554,106.2628 68.2298688,102.018569 L69.4339594,101.353176 C79.6876452,95.7297428 89.8504766,91.2259184 90.3950802,91.1650578 Z M658.585,103.096025 C647.528333,103.096025 638.433333,112.533155 638.433333,124.106995 C638.433333,135.680835 647.528333,145.117965 658.585,145.117965 C669.82,145.117965 678.736667,135.858894 678.736667,124.106995 C678.736667,112.533155 669.641667,103.096025 658.585,103.096025 Z M814.983333,103.096025 C803.926667,103.096025 794.831667,112.533155 794.831667,124.106995 C794.831667,135.680835 803.926667,145.117965 814.983333,145.117965 C826.04,145.117965 835.135,135.858894 835.135,124.106995 C835.135,112.533155 826.04,103.096025 814.983333,103.096025 Z M729.205,101.137375 C728.349,101.137375 727.378867,101.251332 726.477213,101.388082 L725.816667,101.493493 L725.816667,144.583788 C726.886667,144.583788 727.956667,144.761848 729.205,144.761848 C741.153333,144.761848 750.961667,134.968598 751.14,123.038641 C751.14,110.930624 741.331667,101.137375 729.205,101.137375 Z M530.006667,100.781257 L528.223333,100.781257 C518.224973,100.781257 508.916749,107.327476 508.614249,117.200462 L508.606667,117.696868 L508.606667,125.175349 L530.006667,125.175349 L530.006667,100.781257 Z M282.123333,100.781257 L280.34,100.781257 C270.341639,100.781257 261.033416,107.327476 260.730914,117.200462 L260.723333,117.696868 L260.723333,125.175349 L282.123333,125.175349 L282.123333,100.781257 Z M341.508333,100.603197 L333.305,100.603197 L333.305,125.175349 L342.4,125.175349 C350.781667,125.175349 356.31,120.723873 356.31,112.889273 C356.31,106.835265 351.851667,100.603197 341.508333,100.603197 Z M47.2583333,62.142438 C60.0983333,64.457206 89.1666667,85.6462354 89.3462894,86.0023535 C89.5233333,86.71459 52.7866667,104.698556 40.8383333,102.561847 C29.7816667,100.425138 21.2216667,89.563535 23.3616667,78.5238725 C25.5016667,67.48421 36.0233333,60.1837883 47.2583333,62.142438 Z M65.6266667,16.5594936 C54.9266667,21.0109704 50.1116667,34.1873418 54.57,44.8708861 C59.2066667,56.4447258 95.5866667,77.9898734 95.9433333,77.4556962 C95.9507639,77.440858 95.9606713,77.3629571 95.972475,77.2263859 L95.9915303,76.9780753 C96.0999701,75.4249272 96.3111991,70.2574273 96.3279952,63.7243956 L96.3287934,62.483999 C96.3244589,59.1365297 96.2668721,55.4828152 96.1188802,51.8039581 L96.0590729,50.4237573 C96.0483746,50.1937102 96.037305,49.9637025 96.025855,49.7338023 L95.9525182,48.3562422 C95.4972484,40.3344177 94.5538194,32.6126319 92.7333333,28.1333333 C88.4533333,17.4497891 76.3266667,12.2860759 65.6266667,16.5594936 Z M105.395,28.1333333 C100.401667,40.4194094 102.006667,77.099578 102.185,77.4556962 C102.368938,77.731179 112.133686,72.1344176 122.184368,65.0614767 L123.242989,64.3116943 C123.948905,63.8084579 124.654623,63.2987113 125.356931,62.783974 L126.517617,61.9262779 C134.420212,56.0376114 141.6573,49.6161603 143.558333,44.8708861 C147.838333,34.1873418 143.201667,21.0109704 132.501667,16.5594936 C121.801667,12.2860759 109.675,17.4497891 105.395,28.1333333 Z" id="logo"></path>
        </g>
    </g>
</svg>