<svg xmlns="http://www.w3.org/2000/svg"  viewBox="0 0 128 128" width="64px" height="64px"><path fill="#FFF" d="M61.9,15.2c-18.2,0-33,15.7-33,35c0,1.8,0.1,3.7,0.4,5.5c-1.4,2.8-2,6-1.9,9.2c0.4,6.9,4.5,12.7,10.2,15.4c5.4,10.7,12.2,20.3,17.3,26.2c3.7,4.3,10.1,4.3,13.8,0C78.7,95.2,94.9,70,94.9,50.2C94.9,30.9,80.2,15.2,61.9,15.2z"/><path fill="#C7D7E2" d="M92.4,75.5c0.1-0.1,0.2-0.3,0.3-0.4c0.2-0.2,0.3-0.4,0.5-0.7c0.2-0.3,0.4-0.6,0.5-0.9c0.1-0.2,0.3-0.5,0.4-0.7c0.1-0.3,0.3-0.5,0.4-0.8c0.1-0.2,0.2-0.4,0.3-0.6c0.1-0.3,0.3-0.6,0.4-1c0.1-0.1,0.1-0.3,0.2-0.4c0.2-0.5,0.3-0.9,0.4-1.4c0-0.1,0.1-0.3,0.1-0.4c0.1-0.4,0.2-0.8,0.2-1.1c0-0.2,0.1-0.3,0.1-0.5c0.1-0.5,0.1-1,0.2-1.6c0-0.5,0-1.1,0-1.6c0-0.2,0-0.3,0-0.5c0-0.5-0.1-0.9-0.1-1.4c0-0.2-0.1-0.4-0.1-0.6c-0.1-0.3-0.1-0.7-0.2-1c-0.1-0.3-0.1-0.5-0.2-0.8c-0.1-0.2-0.1-0.4-0.2-0.6c-0.2-0.5-0.3-1-0.5-1.5c0-0.1-0.1-0.2-0.1-0.3c-0.1-0.3-0.3-0.6-0.4-1c0.3-1.9,0.4-3.7,0.4-5.5c0-19.3-14.8-35-33-35c-1.6,0-3.2,0.1-4.7,0.4c16,2.4,25.5,17,25.5,34.6c0,1.8-0.1,3.7-0.4,5.5c1.4,2.8,5.8,6,5.6,9.2c-0.4,6.9-5.4,12.7-11.2,15.4c-5.4,10.7-8.4,20.3-13.6,26.2c-0.7,0.8-1.4,1.4-2.2,1.9c3.7,2.3,4.8,1.7,7.9-1.9c5.1-5.9,11.9-15.6,17.3-26.2c0,0,0,0,0,0c1.1-0.5,2.1-1.1,3-1.8c0,0,0.1,0,0.1-0.1c0.3-0.2,0.6-0.5,0.9-0.7c0,0,0,0,0,0c0.5-0.5,1.1-1,1.5-1.5c0.1-0.1,0.1-0.1,0.2-0.2C92.1,75.9,92.3,75.7,92.4,75.5z"/><path fill="#454B54" d="M29.2 58c-1.5 0-2.8-1.1-3-2.6-.2-1.8-.3-3.5-.3-5.1 0-21 16.2-38 36-38 19.9 0 36 17 36 38 0 1.5-.1 3-.3 4.6-.2 1.6-1.7 2.8-3.3 2.7-1.6-.2-2.8-1.7-2.7-3.3.1-1.4.2-2.7.2-4 0-17.6-13.5-32-30-32s-30 14.4-30 32c0 1.4.1 2.9.3 4.4.2 1.6-1 3.1-2.6 3.3C29.4 58 29.3 58 29.2 58zM61.9 112.8C61.9 112.8 61.9 112.8 61.9 112.8c-3.5 0-6.8-1.6-9.2-4.3-6.3-7.3-12.9-17.3-17.7-26.8-.7-1.5-.2-3.3 1.3-4 1.5-.7 3.3-.2 4 1.3 4.6 9.1 10.9 18.7 16.9 25.6 1.2 1.4 2.9 2.2 4.6 2.2 1.8 0 3.4-.8 4.6-2.2C72 98.3 78 89.5 82.4 81.1c.8-1.5 2.6-2 4.1-1.2 1.5.8 2 2.6 1.2 4.1-4.6 8.8-10.9 18-16.6 24.6C68.8 111.3 65.4 112.8 61.9 112.8z"/><path fill="#454B54" d="M44.8,85C34,85,25,76.3,24.5,65.2c-0.3-5.8,1.6-11.3,5.3-15.5c1.1-1.2,3-1.4,4.2-0.3c1.2,1.1,1.4,3,0.3,4.2c-2.7,3-4,7-3.8,11.2C30.9,72.8,37.2,79,44.8,79c1.7,0,3,1.3,3,3S46.4,85,44.8,85z"/><path fill="#454C54" d="M35 64.6c.3 5.4 4.7 9.4 9.8 9.4h7.7c3.2 0 5.5-3.4 4.5-6.6-1.9-5.8-5.6-8.4-12.5-8.4C39 59 34.7 58.8 35 64.6zM88.9 64.6c-.3 5.4-4.7 9.4-9.8 9.4h-7.7c-3.2 0-5.5-3.4-4.5-6.6 1.9-5.8 5.6-8.4 12.5-8.4C84.8 59 89.2 58.8 88.9 64.6z"/><path fill="#454B54" d="M66.6 97h-9.4c-1.7 0-3-1.3-3-3s1.3-3 3-3h9.4c1.7 0 3 1.3 3 3S68.3 97 66.6 97zM66.6 52h-9.4c-1.7 0-3-1.3-3-3s1.3-3 3-3h9.4c1.7 0 3 1.3 3 3S68.3 52 66.6 52zM79.1 85c-1.7 0-3-1.3-3-3s1.3-3 3-3c7.6 0 13.9-6.2 14.3-14.1.2-4.2-1.1-8.1-3.8-11.2-1.1-1.2-1-3.1.3-4.2 1.2-1.1 3.1-1 4.2.3 3.7 4.2 5.6 9.7 5.3 15.5C98.8 76.3 89.9 85 79.1 85z"/></svg>